<svg width="104" height="104" viewBox="0 0 104 104" fill="none" xmlns="http://www.w3.org/2000/svg">
<path d="M62.6974 7.09118C62.3617 6.73763 61.9015 6.52539 61.4245 6.52539H32.8666C27.5969 6.52539 23.2471 10.8579 23.2471 16.127V70.1303C23.2471 75.4 27.5969 79.7324 32.8666 79.7324H71.6271C76.8968 79.7324 81.2466 75.4 81.2466 70.1303V27.2495C81.2466 26.7898 81.0344 26.348 80.7339 26.0118L62.6974 7.09118ZM63.2101 12.7675L75.2877 25.446H67.4365C65.1024 25.446 63.2101 23.5716 63.2101 21.2375V12.7675ZM71.6271 76.1959H32.8666C29.5601 76.1959 26.7837 73.4552 26.7837 70.1303V16.127C26.7837 12.8205 29.5422 10.062 32.8666 10.062H59.6735V21.2375C59.6735 25.5342 63.1398 28.9826 67.4365 28.9826H77.71V70.1303C77.71 73.4552 74.9515 76.1959 71.6271 76.1959Z" fill="#02C5AF"/>
<path d="M66.7997 63.9946H37.6938C36.7214 63.9946 35.9255 64.79 35.9255 65.7629C35.9255 66.7353 36.7214 67.5312 37.6938 67.5312H66.8176C67.79 67.5312 68.5859 66.7353 68.5859 65.7629C68.5859 64.79 67.79 63.9946 66.7997 63.9946Z" fill="#02C5AF"/>
<path d="M50.956 57.6468C51.2922 58.0004 51.7519 58.2126 52.2468 58.2126C52.7422 58.2126 53.2018 58.0004 53.5375 57.6468L63.8998 46.5243C64.5718 45.8167 64.5187 44.6851 63.8116 44.0311C63.1039 43.3592 61.9724 43.4117 61.3183 44.1193L54.0151 51.9526V32.6433C54.0151 31.6703 53.2192 30.875 52.2468 30.875C51.2744 30.875 50.4785 31.6703 50.4785 32.6433V51.9526L43.1931 44.1193C42.5212 43.4122 41.4069 43.3592 40.6998 44.0311C39.9927 44.703 39.9397 45.8172 40.6116 46.5243L50.956 57.6468Z" fill="#02C5AF"/>
</svg>
