<svg width="104" height="104" viewBox="0 0 104 104" fill="none" xmlns="http://www.w3.org/2000/svg">
<path d="M62.6974 7.0913C62.3617 6.73775 61.9015 6.52551 61.4245 6.52551H32.8666C27.5969 6.52551 23.2471 10.858 23.2471 16.1271V70.1304C23.2471 75.4001 27.5969 79.7326 32.8666 79.7326H71.6271C76.8968 79.7326 81.2466 75.4001 81.2466 70.1304V27.2496C81.2466 26.7899 81.0344 26.3481 80.7339 26.0119L62.6974 7.0913ZM63.2101 12.7676L75.2877 25.4461H67.4365C65.1024 25.4461 63.2101 23.5717 63.2101 21.2376V12.7676ZM71.6271 76.196H32.8666C29.5601 76.196 26.7837 73.4553 26.7837 70.1304V16.1271C26.7837 12.8207 29.5422 10.0621 32.8666 10.0621H59.6735V21.2376C59.6735 25.5344 63.1398 28.9827 67.4365 28.9827H77.71V70.1304C77.71 73.4553 74.9515 76.196 71.6271 76.196Z" fill="#4D5E26"/>
<path d="M66.7997 63.995H37.6938C36.7214 63.995 35.9255 64.7903 35.9255 65.7633C35.9255 66.7357 36.7214 67.5316 37.6938 67.5316H66.8176C67.79 67.5316 68.5859 66.7357 68.5859 65.7633C68.5859 64.7903 67.79 63.995 66.7997 63.995Z" fill="#4D5E26"/>
<path d="M50.9559 57.6468C51.2921 58.0004 51.7518 58.2126 52.2466 58.2126C52.7421 58.2126 53.2017 58.0004 53.5374 57.6468L63.8997 46.5243C64.5716 45.8167 64.5186 44.6851 63.8115 44.0311C63.1038 43.3592 61.9723 43.4117 61.3182 44.1193L54.0149 51.9526V32.6433C54.0149 31.6703 53.219 30.875 52.2466 30.875C51.2743 30.875 50.4784 31.6703 50.4784 32.6433V51.9526L43.1929 44.1193C42.521 43.4122 41.4068 43.3592 40.6997 44.0311C39.9926 44.703 39.9395 45.8172 40.6114 46.5243L50.9559 57.6468Z" fill="#4D5E26"/>
</svg>
