<svg width="183" height="45" viewBox="0 0 183 45" fill="none" xmlns="http://www.w3.org/2000/svg">
<path d="M0 18.976L15.962 44.4923H30.9203L58.6144 0" fill="#02C5AF"/>
<path d="M82.9746 0.896309C82.9001 1.12144 81.3865 3.97939 80.5173 6.43867L76.1756 18.6921H72.5027L67.2903 5.0477C66.5743 3.2079 65.3042 1.14582 65.2297 0.92212V0.797363H72.1031V0.896309C72.0545 1.12144 71.3585 3.2079 72.0545 5.05487L76.0324 15.5617L79.4577 5.86794C80.2267 3.6553 79.2343 0.797363 79.2343 0.797363H82.9817L82.9746 0.896309Z" fill="black"/>
<path d="M89.7994 16.2813C87.3923 16.2813 86.3255 14.5921 86.052 12.1801L86.0019 11.5836C85.9816 11.3523 85.9735 11.1202 85.9775 10.8881C85.9532 9.09848 86.3255 7.01632 87.9379 7.01632C89.4772 7.01632 89.7751 9.00527 89.7994 10.6945L87.2477 11.2968V12.1859H93.8948C93.8948 9.20459 92.4056 5.948 87.988 5.948C84.1661 5.948 81.4612 8.33416 81.4612 12.4354C81.4612 16.9338 84.8363 18.9715 87.9135 18.9715C91.1397 18.9715 93.0686 16.7345 93.6414 15.0696L93.5411 14.995C92.1321 15.9085 91.0681 16.2813 89.7994 16.2813Z" fill="black"/>
<path d="M105.291 6.17622V8.614C105.291 8.614 101.711 8.22969 99.9264 9.29801V14.6167C99.9264 16.4063 99.9923 18.6921 99.9923 18.6921H95.0864V18.5888C95.1108 18.3895 95.7809 16.402 95.7809 14.6124V10.167C95.7809 8.37739 95.1108 6.38988 95.0864 6.19055V6.09161H99.9264V8.67279C100.844 6.71252 102.535 5.28141 105.291 6.17622Z" fill="black"/>
<path d="M115.538 15.7838C114.965 17.3999 113.799 18.9659 111.517 18.9659C109.331 18.9659 108.017 17.5003 108.017 14.8159V7.26021H106.204V6.14027C108.454 5.07514 110.451 3.54153 112.062 1.64185H112.137V6.08721H115.487V7.26021H112.137L112.161 14.4172C112.161 15.7078 112.831 16.2327 113.799 16.2327C114.404 16.2104 114.997 16.0573 115.538 15.7838Z" fill="black"/>
<path d="M126.755 6.04135L126.77 8.61393C126.77 8.61393 123.256 8.22962 121.472 9.29794V14.6166C121.472 16.4062 122.166 18.3937 122.188 18.5931V18.692H116.629V18.5888C116.653 18.3894 117.323 16.4019 117.323 14.6123V10.1669C117.323 8.37732 116.653 6.38981 116.629 6.19048V6.09154H121.469V8.67272C122.387 6.71245 124.003 5.14654 126.755 6.04135Z" fill="black"/>
<path d="M140.803 16.6055C140.66 17.8961 139.686 18.9157 138.023 18.9157C136.583 18.9157 135.589 18.1714 135.218 16.8536C134.645 17.823 133.431 18.9157 131.446 18.9157C128.79 18.9157 127.426 16.8536 127.426 14.9148C127.426 12.3337 129.86 10.7147 132.581 10.8638C133.275 10.8882 134.267 11.0072 135.038 11.3356V9.91882C135.038 8.1794 134.814 7.10965 134.118 7.10965C132.687 7.10965 128.481 8.0403 128.481 8.0403L128.435 6.81138C130.769 6.23778 133.002 5.94238 134.368 5.94238C137.867 5.94238 139.182 7.80656 139.182 10.2171V14.9148C139.182 16.4306 139.53 17.126 140.746 16.5309L140.803 16.6055ZM135.075 16.1581C135.054 15.9513 135.046 15.7435 135.051 15.5358V12.1057C134.852 12.0813 134.628 12.0813 134.405 12.0569C132.568 11.9321 131.749 12.9517 131.749 14.2939C131.749 15.6605 132.519 16.6801 133.785 16.6801C134.265 16.6819 134.726 16.4944 135.069 16.1581H135.075Z" fill="black"/>
<path d="M154.752 18.5887V18.6877H150.924C150.524 18.0017 150.234 17.257 150.065 16.4808C149.27 17.823 148.079 18.9185 146.094 18.9185C143.834 18.9185 141.999 17.5032 141.999 14.7686V10.1669C141.999 8.37729 141.303 6.38977 141.283 6.19045V6.0915H146.151V14.1935C146.151 15.7838 147.021 16.3072 148.063 16.3072C148.729 16.283 149.381 16.1132 149.975 15.8096C149.944 15.5718 149.928 15.3324 149.925 15.0927V10.1669C149.925 8.37729 149.837 6.03271 149.837 6.03271L154.069 6.0915V14.6166C154.056 16.4062 154.726 18.3937 154.752 18.5887Z" fill="black"/>
<path d="M160.26 11.5836C160.24 11.3523 160.232 11.1202 160.236 10.8881C160.212 9.09848 160.583 7.01632 162.196 7.01632C163.736 7.01632 164.034 9.00527 164.058 10.6945L161.566 11.2824V12.1859H168.153C168.153 9.20459 166.664 5.948 162.247 5.948C158.425 5.948 155.718 8.33416 155.718 12.4354C155.718 16.9338 159.095 18.9715 162.172 18.9715C165.398 18.9715 167.327 16.7345 167.9 15.0696L167.8 14.995C166.385 15.9142 165.318 16.2856 164.052 16.2856C161.645 16.2856 160.577 14.5964 160.305 12.1844" fill="black"/>
<path d="M183 18.5887V18.6877L178.181 18.6475C178.181 18.6475 178.134 16.4019 178.134 14.6123V10.6645C178.134 9.07421 177.192 8.50205 176.149 8.47767C175.454 8.49165 174.775 8.69811 174.189 9.07422V14.6166C174.189 16.4062 174.905 18.692 174.905 18.692H169.346V18.5887C169.371 18.3894 170.041 16.4019 170.041 14.6123V10.1669C170.041 8.3773 169.371 6.38978 169.346 6.19046V6.09151H174.186V8.25397C174.902 7.06089 176.221 5.94238 178.181 5.94238C180.415 5.94238 182.277 7.35916 182.277 10.0923V14.6166C182.275 16.4062 182.946 18.3937 183 18.5887Z" fill="black"/>
<path d="M82.7758 44.4005V44.4995H75.9511V44.4005C76.0256 44.1768 76.6671 42.0889 75.9755 40.2506L75.3053 38.4351H69.1006L68.7527 39.4303C67.9837 41.6415 69.0763 44.1023 69.1508 44.3762V44.4995H65.2544V44.4005C66.1864 42.6123 66.9907 40.7602 67.6615 38.8582L70.8376 29.9359C71.3345 28.4933 70.4911 26.8528 70.4409 26.6793V26.6047H75.596L80.7095 40.2506C81.3868 42.0932 82.057 43.4111 82.7758 44.4005ZM74.8585 37.2679L72.1292 29.8613L69.5231 37.2679H74.8585Z" fill="black"/>
<path d="M93.4723 26.8571L93.5482 27.9727C93.5482 27.9727 90.8418 27.1554 89.7249 27.1554C88.4361 27.1554 88.6581 29.1443 88.6581 31.2824V31.9033H92.5V33.072H88.6538V40.4283C88.6538 42.2179 88.6752 44.5037 88.6752 44.5037H83.8066V44.4005C83.8309 44.2012 84.5011 42.2136 84.5011 40.424V33.072H82.4963V31.9033H84.5011V31.1332C84.5011 27.2055 86.9583 26.1143 89.49 26.1143C90.8919 26.1114 92.1076 26.4097 93.4723 26.8571Z" fill="black"/>
<path d="M103.698 31.8531L103.715 34.4257C103.715 34.4257 100.198 34.0414 98.4171 35.1097V40.4283C98.4171 42.218 98.4171 44.4636 98.4171 44.4636L93.5728 44.5037C93.5728 44.5037 94.2673 42.218 94.2673 40.4283V35.983C94.2673 34.0844 93.5656 32.2417 93.5728 31.9076H98.4114V34.4888C99.3307 32.5242 100.949 30.9583 103.698 31.8531Z" fill="black"/>
<path d="M104.74 44.4006C104.765 44.2012 105.456 42.2137 105.456 40.4241V35.9787C105.456 34.1891 104.76 32.2016 104.74 32.0023V31.9033H109.58V40.4284C109.58 42.218 109.58 44.5038 109.58 44.5038H104.735L104.74 44.4006ZM104.79 27.9226C104.783 27.4165 104.926 26.9195 105.201 26.4951C105.477 26.0707 105.872 25.7381 106.337 25.5397C106.802 25.3412 107.316 25.286 107.812 25.3809C108.309 25.4759 108.766 25.7168 109.125 26.0728C109.484 26.4289 109.729 26.8841 109.829 27.3803C109.929 27.8765 109.879 28.3912 109.686 28.8589C109.492 29.3265 109.164 29.7259 108.743 30.0061C108.322 30.2863 107.828 30.4346 107.322 30.4321C106.658 30.4266 106.021 30.1618 105.549 29.694C105.076 29.2263 104.804 28.5923 104.79 27.9269V27.9226Z" fill="black"/>
<path d="M111.342 38.2415C111.342 34.1145 114.048 31.7542 117.894 31.7542C120.03 31.7542 121.867 32.5486 122.859 32.9013L122.903 34.2866C122.903 34.2866 119.83 32.8268 118.019 32.8268C116.405 32.8268 115.835 34.7899 115.86 36.928C115.884 39.9609 116.952 42.0903 119.682 42.0903C120.724 42.0903 121.973 41.7677 123.405 40.8485L123.479 40.9231C122.883 42.6123 120.947 44.7748 117.796 44.7748C114.718 44.7776 111.342 42.7643 111.342 38.2415Z" fill="black"/>
<path d="M138.072 42.4173C137.929 43.7079 136.955 44.7274 135.293 44.7274C133.861 44.7274 132.858 43.9832 132.488 42.6654C131.915 43.6347 130.702 44.7274 128.716 44.7274C126.059 44.7274 124.695 42.6654 124.695 40.7266C124.695 38.1454 127.129 36.5265 129.857 36.6756C130.553 36.7 131.545 36.819 132.314 37.1474V35.7306C132.314 33.9912 132.091 32.9214 131.396 32.9214C129.957 32.9214 125.767 33.9955 125.767 33.9955L125.713 32.6231C128.046 32.0496 130.279 31.7542 131.644 31.7542C135.144 31.7542 136.46 33.6183 136.46 36.0289V40.7266C136.46 42.2423 136.806 42.9378 138.024 42.3427L138.072 42.4173ZM132.344 41.9699C132.324 41.7631 132.316 41.5553 132.32 41.3475V37.9174C132.122 37.8931 131.899 37.8931 131.674 37.8687C129.838 37.7439 129.019 38.7635 129.019 40.1057C129.019 41.4723 129.788 42.4919 131.054 42.4919C131.534 42.4943 131.996 42.3067 132.339 41.9699H132.344Z" fill="black"/>
<path d="M139.264 42.7399C139.264 41.5927 140.207 40.751 141.423 40.751C142.665 40.751 143.607 41.5956 143.607 42.7399C143.607 43.8584 142.665 44.703 141.423 44.703C140.207 44.703 139.264 43.8584 139.264 42.7399Z" fill="#02C5AF"/>
</svg>
