<?xml version="1.0" encoding="utf-8"?>
<!-- Generator: Adobe Illustrator 22.0.1, SVG Export Plug-In . SVG Version: 6.00 Build 0)  -->
<svg version="1.1" id="Layer_1" xmlns="http://www.w3.org/2000/svg" xmlns:xlink="http://www.w3.org/1999/xlink" x="0px" y="0px"
	 viewBox="0 0 168 58" style="enable-background:new 0 0 168 58;" xml:space="preserve">
<style type="text/css">
	.st0{fill:#DD1F26;}
	.st1{fill:#FFFFFF;}
</style>
<g>
	<path class="st0" d="M162.8,1.1H90l-7.8,46.7l13.7-14.4h62c2.1,0,3.7-1.5,4.2-3.4v-0.1L167,6.3V6.2c0.1-0.3,0.1-0.5,0.1-0.8
		C167.1,3,165.2,1.1,162.8,1.1z"/>
	<g>
		<path class="st1" d="M94.6,24.3L96.9,11h-2.3l0.7-4.1h16.9l-1.3,7h-3.8l0.4-3h-5.9l-0.9,4.9h5.9l-0.7,4.1H100l-0.7,4.3h2.8
			l-0.7,4.1h-9.7l0.7-4.1L94.6,24.3"/>
		<path class="st1" d="M118.6,12.8c4.5,0,6.8,2.7,6.8,6.6c0,5-3.7,9.4-9.6,9.4c-4.4,0-6.8-2.7-6.8-6.6C109,17,113.1,12.8,118.6,12.8
			z M118.2,16.7c-3,0-4.7,2.3-4.8,4.9c-0.1,1.7,0.8,3.2,3,3.2c2.6,0,4.2-1.8,4.7-3.9C121.6,18.4,120.5,16.7,118.2,16.7z"/>
		<path class="st1" d="M132,28.4h-4.2l1.9-11.5h-2.1l0.6-3.7h6v1.6c1.6-1.4,3.4-1.7,4.6-1.7c4.1,0,6.1,1.9,5.2,7.3l-0.5,2.7
			c-0.4,1.7,1.1,1.7,2.3,1.4l-0.5,3.6c-0.8,0.4-2,0.5-3,0.5c-3.7,0-3.5-3.1-3-5.7l0.5-2.5c0.3-1.6,0.4-3.4-2.4-3.4
			c-2.1,0-3.7,1.4-4.1,3.7L132,28.4z"/>
		<path class="st1" d="M155,9.2l-0.7,4.2h3.9l-0.6,3.7h-3.9l-1,5.9c-0.3,1.8,1.3,2.3,3.2,1.6l0.4,3.5c-1.6,0.5-2.4,0.6-3.7,0.6
			c-2.7,0-4.7-1.6-4-5.7l1-5.9H147l0.6-3.7h2.6l0.6-3.7L155,9.2z"/>
	</g>
	<g>
		<path d="M48.5,23.2l0.5-2.6c0.8-4.9-0.9-7.4-5.3-7.4c-1.6,0-3.4,0.5-4.7,1.9l1.4-8H26l-0.7,4.1h2.6L22.7,22L20.2,7.9h-3L9.7,22
			L8.3,11.1h2.2L11.2,7H1.7L1,11.1h2.2l2.7,17.2h4.7l3.9-6.8l2.6-5l0.9,4.9l1.6,6.8h4.7L32.8,11h2.6l-3.1,17.2h4.3l1.3-7.3
			c0.4-2.1,1.7-3.7,4.3-3.9c1.9-0.1,3.1,0.7,2.6,3.4l-0.5,2.3c-0.5,2.8-0.7,5.8,2.9,5.8c1,0,2.1-0.2,3-0.5l0.5-3.6
			C49.6,24.9,48.2,24.9,48.5,23.2z"/>
		<path d="M58.2,28.7c-3.3,0-6.2-2.1-6.2-6.5c0-4.8,3.4-9.1,8.9-9.4c2.1,0,3.8,0.3,5,1.9l0.5-1.6h4l-1.9,10.2
			c-0.3,1.7,1.1,1.6,2.3,1.3l-0.5,3.5c-1.9,0.8-5.6,1.2-6.3-1.5C62.2,28.4,60.5,28.7,58.2,28.7z M56.4,21.7c0,1.9,1.1,3.3,3.4,3.3
			c2.6,0,4.7-1.7,5.1-4c0.5-2.4-0.7-4.2-3.4-4.2C58.6,16.8,56.4,18.9,56.4,21.7z"/>
		<path d="M80.2,9.2l-0.7,4.1h3.9L82.8,17h-3.9l-1,5.9c-0.3,1.8,1.3,2.3,3.2,1.6l0.4,3.5c-1.6,0.5-2.4,0.6-3.7,0.6
			c-2.7,0-4.7-1.6-4-5.7l1-5.9H72l0.6-3.7h2.6l0.5-3.6L80.2,9.2z"/>
		<path d="M79.4,54.8c0-1.9,1.6-2.9,3-2.9c1.1,0,2.1,0.7,2.1,2.1c0,1.9-1.7,2.9-3,2.9C80.4,56.9,79.4,56.2,79.4,54.8z"/>
		<path d="M101.4,54.3c-2,1.8-4.3,2.5-6.6,2.5c-4.1,0-7.2-2.2-7.2-6.6c0-7,5.6-9.3,9.9-9.3c2,0,3.8,0.4,5.3,1.3l-1,4.7h-3.7l0.4-2
			c-0.5-0.2-1.3-0.2-1.6-0.2c-3.5,0-4.8,2.6-4.8,4.9c0,2.2,1.4,3.2,3.7,3.2c1.1,0,2.4-0.3,3.7-1.3L101.4,54.3z"/>
		<path d="M112.8,40.9c4.5,0,6.8,2.7,6.8,6.6c0,5-3.7,9.4-9.6,9.4c-4.4,0-6.8-2.7-6.8-6.6C103.2,44.9,107.2,40.9,112.8,40.9z
			 M112.3,44.6c-3,0-4.7,2.3-4.8,4.9c-0.1,1.7,0.8,3.2,3,3.2c2.6,0,4.2-1.8,4.7-3.9C115.7,46.4,114.6,44.6,112.3,44.6z"/>
		<path d="M145.7,50.9l0.5-2.8c0.8-4.5-0.1-7-4.8-7c-2.3,0-4,0.8-5.5,2.6c-0.4-1.8-1.6-2.6-3.7-2.6c-1.1,0-2.2,0.3-3.1,1
			c0,0-0.1,0-0.1,0.1c-0.1,0.1-0.2,0.2-0.3,0.3s-0.1,0.1-0.2,0.2c-0.1,0.1-0.3,0.3-0.4,0.4c-0.3,0.3-0.5,0.6-0.7,1.1
			c-0.1-1.6-0.9-2.9-3.2-2.9c-0.7,0-1.5,0.1-2.1,0.3c-0.1,0-0.2,0.1-0.3,0.1c-0.2,0.1-0.5,0.2-0.6,0.2l-0.5,3.6
			c0.3-0.1,0.5-0.1,0.6-0.2c0.4-0.1,0.7-0.1,1,0c0.5,0.2,0.8,0.6,0.6,1.6l-1.6,9.7h4.3l1.4-8c0.4-2.2,1.6-3.3,3.5-3.3
			c1.6,0,2.4,1.2,2,3.3l-1.4,8h4.3l1.3-8c0.3-1.6,1.4-3.3,3.5-3.3s2.1,1.6,1.8,3.1l-0.5,2.6c-0.5,2.7-0.6,5.7,2.9,5.7
			c1,0,2.2-0.2,3-0.5l0.5-3.6C146.4,53,145.4,52.8,145.7,50.9z"/>
		<path d="M60.6,41.2L59,50.9c-0.4,1.9,0.6,2.1,2.3,1.6l-0.5,3.6c-0.8,0.4-1.9,0.5-2.9,0.5c-3.7,0-3.7-3-3.2-5.8l1-5.9h-1.8l0.6-3.6
			L60.6,41.2L60.6,41.2z"/>
		<path d="M73.4,46.1l0.1-1.7c-0.4-0.3-1.3-0.5-2.2-0.5c-1.4,0-2.7,0.5-2.7,1.8c0,0.9,1.4,1.1,2.2,1.1c3.7,0.2,6.8,1.5,6.2,5.3
			c-0.6,2.9-3.2,4.7-7.8,4.7c-2,0-5-0.7-6.5-1.7l0.8-4.2H67l-0.1,1.6c0.5,0.3,1.7,0.5,3,0.5c1.5,0,2.8-0.4,2.8-1.5
			c0-0.7-0.8-1.3-2.9-1.4c-3.5-0.5-6.2-1.7-5.6-5c0.5-3.4,4.4-4.7,7.7-4.7c2,0,4,0.5,5.7,1.3L76.7,46L73.4,46.1L73.4,46.1z"/>
	</g>
</g>
</svg>
